<?xml version="1.0" encoding="UTF-8" standalone="no"?>
<!-- Uploaded to: SVG Repo, www.svgrepo.com, Generator: SVG Repo Mixer Tools -->

<svg
   width="800px"
   height="800px"
   viewBox="0 0 24 24"
   fill="none"
   version="1.1"
   id="svg4"
   sodipodi:docname="icon.svg"
   inkscape:version="1.2.2 (732a01da63, 2022-12-09)"
   xmlns:inkscape="http://www.inkscape.org/namespaces/inkscape"
   xmlns:sodipodi="http://sodipodi.sourceforge.net/DTD/sodipodi-0.dtd"
   xmlns="http://www.w3.org/2000/svg"
   xmlns:svg="http://www.w3.org/2000/svg">
  <defs
     id="defs8" />
  <sodipodi:namedview
     id="namedview6"
     pagecolor="#ffffff"
     bordercolor="#000000"
     borderopacity="0.25"
     inkscape:showpageshadow="2"
     inkscape:pageopacity="0.0"
     inkscape:pagecheckerboard="0"
     inkscape:deskcolor="#d1d1d1"
     showgrid="false"
     inkscape:zoom="1.18"
     inkscape:cx="433.89831"
     inkscape:cy="449.15254"
     inkscape:window-width="2160"
     inkscape:window-height="1334"
     inkscape:window-x="-11"
     inkscape:window-y="-11"
     inkscape:window-maximized="1"
     inkscape:current-layer="svg4" />
  <path
     style="color:#000000;fill:#000000;stroke:none;stroke-width:1.25175;stroke-linecap:round;stroke-linejoin:round;-inkscape-stroke:none;fill-opacity:1"
     d="M 14.414203,1.4500127 C 11.560042,1.0076682 8.456582,2.3016297 6.8132227,5.2297224 4.1057885,5.0073229 1.8712786,6.6547536 1.0849822,8.8285146 0.20424954,11.263351 1.0251282,14.433794 3.9649938,15.830513 A 1.2517538,1.2517538 0 0 0 5.632369,15.238864 1.2517538,1.2517538 0 0 0 5.0407198,13.569044 C 3.1901133,12.689828 2.923624,11.105084 3.4393551,9.6793156 3.9378107,8.3013068 5.1278006,7.3367943 6.9965851,7.7283405 7.5923458,7.8511229 8.1592848,8.0972862 8.5906155,8.5302452 a 1.2517538,1.2517538 0 0 0 1.7725025,0.00244 1.2517538,1.2517538 0 0 0 0.0024,-1.7700584 C 10.033536,6.429351 9.535008,6.3845574 9.135813,6.1465343 c 1.152756,-1.8278622 3.038209,-2.5124972 4.894552,-2.2247968 2.133508,0.3306562 4.00519,1.8229896 4.227114,4.5449424 a 1.251879,1.251879 0 0 0 0.911922,1.1050632 c 1.449954,0.4018471 2.070921,2.0119419 1.266424,3.2834099 a 1.2517538,1.2517538 0 0 0 0.388727,1.726051 1.2517538,1.2517538 0 0 0 1.728496,-0.388728 C 24.06064,11.809803 22.996448,8.7632731 20.570288,7.5694262 19.96749,4.1531608 17.332738,1.9023339 14.414203,1.4500127 Z M 9.0600226,11.380921 A 1.2517538,1.2517538 0 0 0 7.6444651,12.444422 L 6.5711844,19.954944 A 1.2517538,1.2517538 0 0 0 7.6346861,21.370502 1.2517538,1.2517538 0 0 0 9.0502436,20.307 L 10.123524,12.796476 A 1.2517538,1.2517538 0 0 0 9.0600226,11.380921 Z m 8.7622764,0 a 1.2517538,1.2517538 0 0 0 -1.415557,1.063501 L 15.33346,19.954944 A 1.2517538,1.2517538 0 0 0 16.396962,21.370502 1.2517538,1.2517538 0 0 0 17.812519,20.307 L 18.8858,12.796476 a 1.2517538,1.2517538 0 0 0 -1.063501,-1.415555 z m -4.559611,1.251753 a 1.2517538,1.2517538 0 0 0 -1.415557,1.063501 l -1.073282,7.510522 a 1.2517538,1.2517538 0 0 0 1.063502,1.415558 1.2517538,1.2517538 0 0 0 1.415557,-1.063501 l 1.073282,-7.510523 a 1.2517538,1.2517538 0 0 0 -1.063502,-1.415557 z"
     id="path2" />
</svg>
