<?xml version="1.0" encoding="UTF-8" standalone="no"?>
<!-- Uploaded to: SVG Repo, www.svgrepo.com, Generator: SVG Repo Mixer Tools -->

<svg
   width="800px"
   height="800px"
   viewBox="0 0 24 24"
   fill="none"
   version="1.1"
   id="svg4"
   sodipodi:docname="icon_outlined.svg"
   inkscape:version="1.2.2 (732a01da63, 2022-12-09)"
   xmlns:inkscape="http://www.inkscape.org/namespaces/inkscape"
   xmlns:sodipodi="http://sodipodi.sourceforge.net/DTD/sodipodi-0.dtd"
   xmlns="http://www.w3.org/2000/svg"
   xmlns:svg="http://www.w3.org/2000/svg">
  <defs
     id="defs8" />
  <sodipodi:namedview
     id="namedview6"
     pagecolor="#ffffff"
     bordercolor="#000000"
     borderopacity="0.25"
     inkscape:showpageshadow="2"
     inkscape:pageopacity="0.0"
     inkscape:pagecheckerboard="0"
     inkscape:deskcolor="#d1d1d1"
     showgrid="false"
     inkscape:zoom="1.18"
     inkscape:cx="431.77966"
     inkscape:cy="449.15254"
     inkscape:window-width="2160"
     inkscape:window-height="1334"
     inkscape:window-x="-11"
     inkscape:window-y="-11"
     inkscape:window-maximized="1"
     inkscape:current-layer="path2" />
  <g
     id="path2">
    <path
       style="color:#000000;fill:#ffffff;stroke-linecap:round;stroke-linejoin:round;-inkscape-stroke:none"
       d="M 12.162109,0.82421875 C 9.9318391,1.1523169 7.835806,2.4704793 6.4921875,4.6367187 3.6787452,4.5721314 1.3384826,6.2864027 0.49609375,8.6152344 -0.48591071,11.330043 0.46587429,14.861221 3.6953125,16.396484 c 0.9290786,0.441767 2.0591236,0.0399 2.5019531,-0.888671 0.4442009,-0.929967 0.043895,-2.061063 -0.8867187,-2.503907 a 0.62593758,0.62593758 0 0 0 -0.00195,0 C 4.5044251,12.621849 4.1225163,12.146318 3.9453125,11.626953 3.7681087,11.107589 3.8064379,10.503285 4.0273437,9.8925781 4.2382681,9.3094659 4.5798527,8.8514428 5.03125,8.5742188 5.4826473,8.2969947 6.0618009,8.1726437 6.8691406,8.3417969 a 0.62593758,0.62593758 0 0 0 0.00195,0 c 0.510667,0.1052451 0.9538777,0.3081327 1.2753907,0.6308594 v -0.00195 c 0.7273614,0.7312302 1.9288316,0.7331311 2.6582036,0.00391 0.727449,-0.7271359 0.730295,-1.9257808 0.0039,-2.6542969 C 10.571239,6.0820323 10.4297,6.0978911 10.207031,6.0039062 c 1.010758,-1.1414286 2.31594,-1.6815122 3.726563,-1.4628906 1.906605,0.2954903 3.49895,1.5202197 3.699218,3.9765625 0.06328,0.7824808 0.612889,1.4456226 1.369141,1.6562499 a 0.62593758,0.62593758 0 0 0 0,0.002 c 1.07962,0.299211 1.503334,1.397002 0.904297,2.34375 a 0.62593758,0.62593758 0 0 0 0,0.002 c -0.549389,0.869826 -0.285242,2.037554 0.583984,2.587891 0.870535,0.551849 2.041347,0.289388 2.591797,-0.582031 C 24.727706,11.926438 23.63059,8.6491225 21.099609,7.2050781 20.359243,3.6818687 17.601948,1.3112647 14.509766,0.83203125 13.733625,0.71174323 12.942144,0.7094668 12.162109,0.82421875 Z m 0.183594,1.23632815 c 0.655951,-0.094959 1.321718,-0.093071 1.972656,0.00781 2.664334,0.4129244 5.078023,2.4541204 5.634766,5.609375 a 0.62593758,0.62593758 0 0 0 0.341797,0.453125 c 2.112744,1.0396234 3.036059,3.6600566 1.728515,5.7265626 -0.188789,0.298873 -0.564711,0.384581 -0.863281,0.195312 C 20.86209,13.864019 20.776453,13.487725 20.964844,13.189453 21.974476,11.593779 21.156951,9.474105 19.337891,8.96875 19.083045,8.8977717 18.902185,8.6797001 18.880859,8.4160156 18.63728,5.4284583 16.48736,3.6685559 14.126953,3.3027344 12.058726,2.9821957 9.8848666,3.7838287 8.6054688,5.8125 a 0.62593758,0.62593758 0 0 0 0.2089843,0.8710937 c 0.5663956,0.3377178 0.9767454,0.3902987 1.1074219,0.5214844 0.249257,0.2499872 0.249934,0.6354553 0,0.8847657 a 0.62593758,0.62593758 0 0 0 -0.00195,0 C 9.6697511,8.3399641 9.2846375,8.3386988 9.0351563,8.0878906 a 0.62593758,0.62593758 0 0 0 -0.00195,0 C 8.4924949,7.5451412 7.8053137,7.2556822 7.125,7.1152344 h -0.00195 C 6.062439,6.8934873 5.1118802,7.0564597 4.3769531,7.5078125 3.6415467,7.9594597 3.1390933,8.6719017 2.8515625,9.4667969 2.5567378,10.281857 2.4700063,11.181998 2.7597656,12.03125 c 0.2897593,0.849252 0.9652828,1.606358 2.0117188,2.103516 0.3191719,0.151881 0.4492222,0.515034 0.296875,0.833984 -0.15185,0.318415 -0.5153955,0.44836 -0.8339844,0.296875 C 1.5853147,14.007067 0.89452375,11.195448 1.6738281,9.0410156 2.3655157,7.128806 4.3336325,5.6540629 6.7617187,5.8535156 A 0.62593758,0.62593758 0 0 0 7.359375,5.5351562 C 8.4973328,3.5075742 10.377851,2.3454243 12.345703,2.0605469 Z M 9.1484375,10.761719 C 8.1288798,10.616753 7.1700109,11.337815 7.0253906,12.357422 l -1.0742187,7.509765 c -0.1449663,1.019559 0.5760955,1.978428 1.5957031,2.123047 1.0189625,0.144882 1.9775607,-0.575087 2.1230469,-1.59375 v -0.002 l 1.0722661,-7.509765 a 0.62593758,0.62593758 0 0 0 0.002,0 c 0.144963,-1.019557 -0.576098,-1.978427 -1.5957035,-2.123047 z m 8.7617185,0 c -1.019557,-0.144966 -1.978426,0.576096 -2.123047,1.595703 l -1.072265,7.509765 a 0.62593758,0.62593758 0 0 0 -0.002,0 c -0.144967,1.019559 0.576095,1.978428 1.595703,2.123047 1.018961,0.144881 1.977559,-0.575089 2.123047,-1.59375 v -0.002 l 1.074218,-7.509765 c 0.144964,-1.019557 -0.576098,-1.978427 -1.595703,-2.123047 z M 8.9726563,12 c 0.3496665,0.0496 0.5809642,0.359335 0.53125,0.708984 L 8.4296875,20.21875 C 8.3800912,20.568417 8.0723067,20.799715 7.7226562,20.75 7.3729889,20.700404 7.1416911,20.392619 7.1914062,20.042969 L 8.2636719,12.533203 C 8.3132684,12.183536 8.623006,11.950285 8.9726563,12 Z m 8.7617187,0 c 0.349666,0.0496 0.580964,0.359335 0.53125,0.708984 l -1.072266,7.509766 c -0.0496,0.349667 -0.359334,0.580965 -0.708984,0.53125 -0.349667,-0.0496 -0.580965,-0.357381 -0.53125,-0.707031 l 1.072266,-7.509766 a 0.62593758,0.62593758 0 0 0 0.002,0 C 17.07694,12.183536 17.384725,11.950285 17.734375,12 Z m -4.384766,0.01367 c -1.018806,-0.143732 -1.978521,0.574815 -2.123046,1.59375 h 0.002 l -1.074219,7.509765 a 0.62593758,0.62593758 0 0 0 0,0.002 c -0.144966,1.019558 0.576095,1.978427 1.595703,2.123046 1.019557,0.144966 1.978427,-0.576096 2.123047,-1.595703 l 1.072266,-7.509765 c 0.14488,-1.018962 -0.57509,-1.97756 -1.59375,-2.123047 z m -0.175781,1.238281 c 0.349667,0.0496 0.582918,0.359334 0.533203,0.708985 l -1.074218,7.509765 c -0.0496,0.349667 -0.357382,0.580965 -0.707032,0.53125 -0.349667,-0.0496 -0.582918,-0.357381 -0.533203,-0.707031 l 1.074219,-7.509766 a 0.62593758,0.62593758 0 0 0 0,-0.002 c 0.0496,-0.349667 0.357381,-0.580965 0.707031,-0.53125 z"
       id="path2409" />
    <path
       style="color:#000000;fill:#000000;stroke-width:1.25175;stroke-linecap:round;stroke-linejoin:round;-inkscape-stroke:none"
       d="M 14.414203,1.4500127 C 11.560042,1.0076682 8.456582,2.3016297 6.8132227,5.2297224 4.1057885,5.0073229 1.8712786,6.6547536 1.0849822,8.8285146 0.20424954,11.263351 1.0251282,14.433794 3.9649938,15.830513 A 1.2517538,1.2517538 0 0 0 5.632369,15.238864 1.2517538,1.2517538 0 0 0 5.0407198,13.569044 C 3.1901133,12.689828 2.923624,11.105084 3.4393551,9.6793156 3.9378107,8.3013068 5.1278006,7.3367943 6.9965851,7.7283405 7.5923458,7.8511229 8.1592848,8.0972862 8.5906155,8.5302452 a 1.2517538,1.2517538 0 0 0 1.7725025,0.00244 1.2517538,1.2517538 0 0 0 0.0024,-1.7700584 C 10.033536,6.429351 9.535008,6.3845574 9.135813,6.1465343 c 1.152756,-1.8278622 3.038209,-2.5124972 4.894552,-2.2247968 2.133508,0.3306562 4.00519,1.8229896 4.227114,4.5449424 a 1.251879,1.251879 0 0 0 0.911922,1.1050632 c 1.449954,0.4018471 2.070921,2.0119419 1.266424,3.2834099 a 1.2517538,1.2517538 0 0 0 0.388727,1.726051 1.2517538,1.2517538 0 0 0 1.728496,-0.388728 C 24.06064,11.809803 22.996448,8.7632731 20.570288,7.5694262 19.96749,4.1531608 17.332738,1.9023339 14.414203,1.4500127 Z M 9.0600226,11.380921 A 1.2517538,1.2517538 0 0 0 7.6444651,12.444422 L 6.5711844,19.954944 A 1.2517538,1.2517538 0 0 0 7.6346861,21.370502 1.2517538,1.2517538 0 0 0 9.0502436,20.307 L 10.123524,12.796476 A 1.2517538,1.2517538 0 0 0 9.0600226,11.380921 Z m 8.7622764,0 a 1.2517538,1.2517538 0 0 0 -1.415557,1.063501 L 15.33346,19.954944 A 1.2517538,1.2517538 0 0 0 16.396962,21.370502 1.2517538,1.2517538 0 0 0 17.812519,20.307 L 18.8858,12.796476 a 1.2517538,1.2517538 0 0 0 -1.063501,-1.415555 z m -4.559611,1.251753 a 1.2517538,1.2517538 0 0 0 -1.415557,1.063501 l -1.073282,7.510522 a 1.2517538,1.2517538 0 0 0 1.063502,1.415558 1.2517538,1.2517538 0 0 0 1.415557,-1.063501 l 1.073282,-7.510523 a 1.2517538,1.2517538 0 0 0 -1.063502,-1.415557 z"
       id="path2407" />
  </g>
</svg>
